<svg xmlns="http://www.w3.org/2000/svg"
     width="31.88" height="32" viewBox="0 0 840 881" preserveAspectRatio="xMidYMid meet">
    <g transform="translate(0,881) scale(0.1,-0.1)" fill="#ffffff" stroke="none">
        <path d="M6140 8390 c-368 -51 -698 -201 -970 -442 -343 -303 -551 -684 -616 -1128 -23 -159 -16 -440 16 -595 45 -225 151 -485 274 -669 119 -178 346 -402 523 -517 621 -402 1405 -396 2026 16 161 106 374 323 494 502 246 367 352 798 299 1225 -99 799 -672 1416 -1471 1584 -99 21 -154 26 -315 29 -107 2 -224 0 -260 -5z m307 -1011 c24 -12 47 -28 52 -37 16 -31 22 -96 30 -345 5 -136 10 -249 12 -251 2 -3 124 -9 271 -15 155 -7 282 -16 304 -24 46 -15 84 -79 84 -142 0 -46 -34 -103 -85 -143 -27 -21 -36 -22 -306 -22 l-278 0 -3 -272 c-3 -252 -5 -276 -23 -308 -23 -40 -93 -80 -139 -80 -44 0 -114 38 -131 70 -25 48 -35 155 -35 378 l0 212 -182 0 c-226 1 -365 13 -407 35 -74 38 -94 174 -35 237 52 55 68 58 359 58 l265 0 0 283 0 283 43 41 c23 22 51 45 62 51 32 18 95 14 142 -9z"/>
        <path d="M351 7720 c-66 -6 -77 -10 -102 -38 -15 -17 -33 -49 -40 -71 -18 -60 -5 -102 49 -160 l48 -51 462 0 c254 0 462 -1 462 -3 0 -10 440 -2191 614 -3047 250 -1226 240 -1186 317 -1328 142 -266 386 -462 717 -576 l104 -36 2058 0 2057 0 52 54 c45 49 51 60 51 98 0 48 -27 115 -55 138 -24 20 -416 25 -2505 35 l-1605 8 -77 28 c-296 109 -459 270 -555 548 -35 103 -98 389 -88 399 9 9 1686 20 3232 21 l1382 1 97 34 c165 60 297 152 398 280 105 132 164 276 173 416 5 77 3 88 -19 120 -13 19 -43 45 -68 58 -54 27 -83 24 -185 -20 -273 -118 -380 -152 -590 -189 -155 -27 -420 -36 -580 -20 -761 78 -1407 508 -1730 1151 -135 270 -191 488 -220 859 -10 141 -19 203 -32 230 -33 67 19 64 -1293 70 l-1174 6 -34 165 c-83 414 -133 649 -147 698 -9 31 -31 70 -52 93 l-35 39 -507 -1 c-278 -1 -539 -5 -580 -9z"/>
        <path d="M2895 2064 c-232 -49 -421 -171 -545 -354 -234 -344 -183 -793 122 -1075 173 -160 373 -234 602 -222 139 7 205 24 331 87 201 99 344 264 415 479 27 80 34 116 38 217 10 259 -71 468 -246 636 -169 162 -371 239 -612 237 -47 -1 -94 -3 -105 -5z"/>
        <path d="M6180 2050 c-104 -27 -262 -108 -342 -174 -121 -100 -213 -237 -268 -396 -30 -88 -38 -271 -17 -390 51 -297 267 -541 565 -640 437 -146 923 120 1054 577 32 112 32 314 0 427 -83 289 -308 514 -588 587 -120 31 -307 35 -404 9z"/>
    </g>
</svg>
